<svg xmlns="http://www.w3.org/2000/svg" width="150" height="31" fill="none" viewBox="0 0 150 31"><g clip-path="url(#a)"><path fill="#d46539" d="m75 14.069-6.634 8.409L75 31l6.635-8.522z"/><path fill="#d46539" d="M18.316 12.364c-.814.114-1.513.341-2.327.455-.699.34-1.397.568-2.096.909-2.793 1.023-5.12 2.613-6.983 4.09C5.164 19.41 3.767 21 2.836 22.479.857 25.318.276 27.25.276 27.25s.581-1.932 2.444-4.772C3.65 21 5.048 19.41 6.793 17.705c1.863-1.59 4.074-3.295 6.984-4.318.699-.341 1.397-.682 2.212-.91.814-.226 1.513-.34 2.327-.567 1.514-.341 3.26-.341 5.005-.569 1.746-.113 3.492.114 5.354.228 1.746.113 3.609.682 5.47.909 3.61.909 7.45 2.045 11.058 3.636 3.725 1.477 7.217 3.182 11.174 4.204 3.841 1.023 7.915 1.364 11.756 1.023 2.444-.34 4.656-.909 6.867-1.818 2.212.796 4.54 1.477 6.867 1.818 3.841.455 7.915 0 11.756-1.023 3.841-.909 7.449-2.613 11.174-4.09 3.608-1.591 7.449-2.728 11.057-3.637 1.862-.34 3.725-.795 5.471-.909 1.862 0 3.608-.34 5.354-.227 1.746.227 3.492.114 5.005.568.814.228 1.629.341 2.328.569.814.227 1.513.568 2.211.795 2.91 1.023 5.121 2.727 6.984 4.318 1.746 1.705 3.142 3.295 4.073 4.773 1.863 2.954 2.445 4.772 2.445 4.772s-.582-1.932-2.561-4.772c-.931-1.478-2.328-3.068-4.19-4.66-1.862-1.477-4.074-3.068-6.984-4.09-.698-.227-1.396-.568-2.095-.796-.815-.227-1.513-.34-2.328-.454-1.513-.455-3.259-.455-4.888-.568-1.746-.114-3.492.113-5.238.227-1.746.227-3.608.682-5.47.909a69 69 0 0 0-10.941 3.75c-3.609 1.477-7.217 3.295-11.174 4.204-3.958 1.023-8.031 1.364-11.989.91-2.328-.228-4.656-.91-6.75-1.705-2.328.795-4.54 1.364-6.984 1.59-3.957.455-8.148.114-11.989-.908-3.957-.91-7.565-2.727-11.173-4.205-3.609-1.59-7.333-2.727-10.941-3.75-1.863-.227-3.609-.681-5.47-.909-1.747 0-3.493-.34-5.239-.227-1.745.227-3.375.114-5.005.568"/><path fill="#d46539" d="M27.512 19.296c-2.91-1.023-.699-3.41.698-.796-1.28-2.613 1.979-2.84 1.047 0 .931-2.727 3.492-.568.699.682 2.444-1.136 2.793 1.364.698 1.137.466.113.931.227 1.513.454 2.444.796 5.82 1.818 10.01 2.614s9.195 1.477 14.433 1.477 10.94-.91 16.179-2.84c.698-.342 1.396-.91 2.211-.91s1.513.682 2.212.91c5.237 2.044 10.824 2.84 16.178 2.84s10.243-.568 14.433-1.477 7.682-1.819 10.01-2.614c.582-.113 1.047-.34 1.513-.568-2.095.227-1.746-2.273.698-1.136-2.677-1.25-.233-3.41.815-.682-1.048-2.727 2.328-2.614 1.048 0 1.28-2.614 3.491-.227.698.795 2.793-1.022 2.677 2.273-.116 1.023 2.677 1.25.232 3.409-.699.682 1.048 2.727-2.328 2.613-1.047 0-1.048 2.272-2.794.795-1.63-.227-.349.113-.698.34-1.047.454-2.328 1.023-5.704 2.273-9.894 3.295-4.19 1.023-9.195 2.046-14.665 2.16-5.587.113-11.523-.682-16.994-2.728-.582-.227-.931-.568-1.513-.568s-.931.34-1.397.568c-5.587 2.046-11.523 2.841-16.993 2.727-5.47 0-10.476-1.136-14.666-2.159-4.19-.909-7.565-2.272-9.893-3.295-.466-.227-.815-.34-1.164-.454 1.164 1.022-.466 2.386-1.63.227 1.28 2.613-1.978 2.84-1.047 0-.931 2.727-3.376.681-.698-.682-2.678 1.364-2.91-1.932 0-.91"/><g clip-path="url(#b)"><path fill="#d46539" d="m58.5 7.467-1.493 3.05-3.337.486 2.415 2.375-.571 3.35 2.986-1.58 2.986 1.58-.571-3.35 2.415-2.372-3.337-.49z"/></g><g clip-path="url(#c)"><path fill="#d46539" d="m74.625.85-2.026 3.922-4.529.625 3.278 3.054-.775 4.308 4.052-2.033 4.052 2.033-.775-4.308L81.18 5.4l-4.529-.63z"/></g><path fill="#d46539" d="m90 8.223-1.493 3.05-3.337.486 2.415 2.375-.57 3.35L90 15.905l2.986 1.58-.571-3.35 2.415-2.372-3.337-.49z"/></g><defs><clipPath id="a"><path fill="#fff" d="M0 0h150v31H0z"/></clipPath><clipPath id="b"><path fill="#fff" d="M53.25 6.805h10.5V17.39h-10.5z"/></clipPath><clipPath id="c"><path fill="#fff" d="M67.5 0h14.25v13.61H67.5z"/></clipPath></defs></svg>